<svg xmlns="http://www.w3.org/2000/svg" xmlns:xlink="http://www.w3.org/1999/xlink" width="24.001" height="24" viewBox="0 0 24.001 24">
  <defs>
    <clipPath id="clip-path">
      <rect id="Rectangle_2714" data-name="Rectangle 2714" width="24" height="24" transform="translate(-22209 10388)" fill="#b8b9ba" stroke="#707070" stroke-width="1"/>
    </clipPath>
  </defs>
  <g id="Component_1284_3" data-name="Component 1284 – 3" transform="translate(0.001)">
    <g id="Rectangle_655" data-name="Rectangle 655" fill="#b8b9ba" stroke="#707070" stroke-width="1" opacity="0">
      <rect width="24" height="24" stroke="none"/>
      <rect x="0.5" y="0.5" width="23" height="23" fill="none"/>
    </g>
    <g id="Mask_Group_7411" data-name="Mask Group 7411" transform="translate(22209 -10388)" clip-path="url(#clip-path)">
      <path id="Path_5047" data-name="Path 5047" d="M18.008,12.309a.606.606,0,0,1,0,.809l-1.582,1.674-3.272-3.439,1.594-1.663a.523.523,0,0,1,.758,0Zm-4.854.661-.758-.809L2.418,22.638a.606.606,0,0,0,0,.809l2.505,2.619a.539.539,0,0,0,.379.171.585.585,0,0,0,.392-.171l9.967-10.477-.769-.809Zm8.086,4.158H20.109a.569.569,0,0,0,0,1.139H21.24a.569.569,0,0,0,0-1.139Zm3.25,0H23.364a.569.569,0,1,0,0,1.139h1.131a.569.569,0,0,0,0-1.139Zm-2.183-.056a.556.556,0,0,0,.542-.569V14.129a.542.542,0,1,0-1.083,0V16.5A.556.556,0,0,0,22.307,17.072Zm0,1.24a.556.556,0,0,0-.542.569v2.379a.542.542,0,1,0,1.083,0V18.886a.556.556,0,0,0-.542-.569ZM18.348,6.023h.569a.569.569,0,0,0,0-1.139h-.569a.569.569,0,1,0,0,1.139Zm3.791-.569a.556.556,0,0,0-.542-.569h-.569a.569.569,0,1,0,0,1.139H21.6a.556.556,0,0,0,.544-.569Zm-2.164-.621a.556.556,0,0,0,.542-.569V2.8a.542.542,0,1,0-1.083,0V4.266a.556.556,0,0,0,.542.569Zm0,1.24a.556.556,0,0,0-.542.569V8.108a.542.542,0,1,0,1.083,0V6.645a.556.556,0,0,0-.542-.569Z" transform="translate(-22210.664 10385.763)" fill="#b8b9ba"/>
      <path id="Path_5047-2" data-name="Path 5047" d="M16.348,6.023h.569a.569.569,0,0,0,0-1.139h-.569a.569.569,0,1,0,0,1.139Zm3.791-.569a.556.556,0,0,0-.542-.569h-.569a.569.569,0,1,0,0,1.139H19.6a.556.556,0,0,0,.544-.569Zm-2.164-.621a.556.556,0,0,0,.542-.569V2.8a.542.542,0,1,0-1.083,0V4.266a.556.556,0,0,0,.542.569Zm0,1.24a.556.556,0,0,0-.542.569V8.108a.542.542,0,1,0,1.083,0V6.645a.556.556,0,0,0-.542-.569Z" transform="translate(-22220.664 10387.763)" fill="#b8b9ba"/>
    </g>
  </g>
</svg>
