<svg xmlns="http://www.w3.org/2000/svg" width="24" height="24" viewBox="0 0 24 24">
  <g id="Group_3151" data-name="Group 3151" transform="translate(-293 -590)">
    <g id="Group_849" data-name="Group 849" transform="translate(119 156)" opacity="0">
      <rect id="Rectangle_652" data-name="Rectangle 652" width="24" height="24" transform="translate(174 434)" fill="#666" opacity="0.999"/>
    </g>
    <g id="Group_3073" data-name="Group 3073" transform="translate(293 590)">
      <g id="Rectangle_652-2" data-name="Rectangle 652" fill="#666" stroke="#707070" stroke-width="1" opacity="0">
        <rect width="24" height="24" stroke="none"/>
        <rect x="0.5" y="0.5" width="23" height="23" fill="none"/>
      </g>
      <path id="Path_3236" data-name="Path 3236" d="M163.9,926.16l-4.869,4.869,4.84,4.841a.67.67,0,0,1-.027.975h0a.671.671,0,0,1-.921-.027l-4.84-4.841-4.815,4.815a.669.669,0,0,1-.948,0h0a.672.672,0,0,1,0-.949l4.816-4.815-4.841-4.841a.671.671,0,0,1-.026-.921h0a.671.671,0,0,1,.975-.027l4.841,4.841,4.869-4.869a.67.67,0,0,1,.949,0h0A.672.672,0,0,1,163.9,926.16Z" transform="translate(-146.098 -919.015)" fill="#666"/>
    </g>
  </g>
</svg>
